<?xml version="1.0" standalone="no"?>
<!DOCTYPE svg PUBLIC "-//W3C//DTD SVG 20010904//EN"
 "http://www.w3.org/TR/2001/REC-SVG-20010904/DTD/svg10.dtd">
<svg version="1.0" xmlns="http://www.w3.org/2000/svg"
 width="547.000000pt" height="547.000000pt" viewBox="0 0 547.000000 547.000000"
 preserveAspectRatio="xMidYMid meet">
<metadata>
Created by potrace 1.14, written by Peter Selinger 2001-2017
</metadata>
<g transform="translate(0.000000,547.000000) scale(0.100000,-0.100000)"
fill="#000000" stroke="none">
<path d="M1697 4618 c-125 -11 -328 -54 -427 -90 -219 -80 -363 -155 -518
-273 -500 -378 -738 -908 -726 -1615 6 -311 32 -463 121 -686 130 -327 369
-613 686 -818 149 -98 375 -192 553 -231 225 -49 218 -49 544 -49 l315 0 145
32 c80 18 167 39 194 47 27 8 51 15 53 15 2 0 3 -16 3 -35 l0 -35 276 0 277 0
-7 288 c-5 243 -8 745 -6 1102 l0 95 53 52 c117 117 223 213 233 213 17 0 113
-124 752 -977 l572 -763 78 -1 c42 0 195 -3 340 -5 144 -3 262 -3 262 0 0 3
-28 41 -62 84 -99 124 -1533 2001 -1536 2012 -3 8 44 59 310 335 53 55 106
111 118 125 12 14 74 79 138 145 64 66 205 212 312 325 107 112 238 249 291
304 53 56 111 117 129 136 17 19 77 81 132 138 l101 102 -349 0 -348 0 -64
-67 c-36 -38 -95 -100 -131 -138 -36 -39 -111 -118 -166 -176 -55 -58 -170
-179 -255 -269 -85 -91 -195 -207 -245 -259 -49 -52 -101 -106 -115 -121 -14
-15 -91 -96 -171 -181 -187 -198 -255 -271 -314 -339 -81 -94 -76 -93 -70 -10
2 41 7 409 10 818 l6 742 -276 0 -275 0 0 -30 c0 -16 -2 -30 -4 -30 -3 0 -60
13 -127 30 -67 16 -169 37 -226 45 -118 18 -452 25 -586 13z m452 -532 c9 -3
39 -7 66 -11 83 -10 214 -42 320 -78 l100 -34 3 -621 2 -622 -365 0 -365 0 0
-260 0 -260 360 0 360 0 0 -345 0 -346 -47 -20 c-111 -49 -209 -76 -373 -104
-62 -11 -363 -14 -440 -5 -316 38 -565 144 -782 334 -206 179 -352 442 -393
706 -40 264 -32 482 26 714 108 428 408 745 838 886 107 35 228 59 331 67 41
3 77 7 79 9 6 5 260 -4 280 -10z"/>
</g>
</svg>
